<svg width="16" height="16" viewBox="0 0 16 16" fill="none" xmlns="http://www.w3.org/2000/svg">
<path fill-rule="evenodd" clip-rule="evenodd" d="M13.3716 12.8345C13.1869 13.0397 12.8708 13.0564 12.6655 12.8716L7.66551 8.37164C7.56016 8.27682 7.5 8.14174 7.5 8C7.5 7.85825 7.56016 7.72317 7.66551 7.62835L12.6655 3.12835C12.8708 2.94362 13.1869 2.96026 13.3716 3.16551C13.5564 3.37077 13.5397 3.68691 13.3345 3.87164L8.74742 8L13.3345 12.1283C13.5397 12.3131 13.5564 12.6292 13.3716 12.8345Z" fill="#3A395F"/>
<path fill-rule="evenodd" clip-rule="evenodd" d="M8.37164 12.8345C8.18691 13.0397 7.87077 13.0564 7.66551 12.8716L2.66551 8.37164C2.56016 8.27682 2.5 8.14174 2.5 8C2.5 7.85825 2.56016 7.72317 2.66551 7.62835L7.66551 3.12835C7.87077 2.94362 8.18691 2.96026 8.37164 3.16551C8.55637 3.37077 8.53973 3.68691 8.33448 3.87164L3.74742 8L8.33448 12.1283C8.53973 12.3131 8.55637 12.6292 8.37164 12.8345Z" fill="#3A395F"/>
</svg>
