<svg width="16" height="15" viewBox="0 0 16 15" fill="none" xmlns="http://www.w3.org/2000/svg">
<path d="M3 7C3 6.72386 3.22386 6.5 3.5 6.5H4.5C4.77614 6.5 5 6.72386 5 7C5 7.27614 4.77614 7.5 4.5 7.5H3.5C3.22386 7.5 3 7.27614 3 7Z" fill="#EAE9FD"/>
<path d="M7.5 6.5C7.22386 6.5 7 6.72386 7 7C7 7.27614 7.22386 7.5 7.5 7.5H8.5C8.77614 7.5 9 7.27614 9 7C9 6.72386 8.77614 6.5 8.5 6.5H7.5Z" fill="#EAE9FD"/>
<path d="M11 7C11 6.72386 11.2239 6.5 11.5 6.5H12.5C12.7761 6.5 13 6.72386 13 7C13 7.27614 12.7761 7.5 12.5 7.5H11.5C11.2239 7.5 11 7.27614 11 7Z" fill="#EAE9FD"/>
<path d="M11.5 9C11.2239 9 11 9.22386 11 9.5C11 9.77614 11.2239 10 11.5 10H12.5C12.7761 10 13 9.77614 13 9.5C13 9.22386 12.7761 9 12.5 9H11.5Z" fill="#EAE9FD"/>
<path d="M3 9.5C3 9.22386 3.22386 9 3.5 9H4.5C4.77614 9 5 9.22386 5 9.5C5 9.77614 4.77614 10 4.5 10H3.5C3.22386 10 3 9.77614 3 9.5Z" fill="#EAE9FD"/>
<path d="M7.5 9C7.22386 9 7 9.22386 7 9.5C7 9.77614 7.22386 10 7.5 10H8.5C8.77614 10 9 9.77614 9 9.5C9 9.22386 8.77614 9 8.5 9H7.5Z" fill="#EAE9FD"/>
<path d="M3 12C3 11.7239 3.22386 11.5 3.5 11.5H4.5C4.77614 11.5 5 11.7239 5 12C5 12.2761 4.77614 12.5 4.5 12.5H3.5C3.22386 12.5 3 12.2761 3 12Z" fill="#EAE9FD"/>
<path d="M7.5 11.5C7.22386 11.5 7 11.7239 7 12C7 12.2761 7.22386 12.5 7.5 12.5H8.5C8.77614 12.5 9 12.2761 9 12C9 11.7239 8.77614 11.5 8.5 11.5H7.5Z" fill="#EAE9FD"/>
<path fill-rule="evenodd" clip-rule="evenodd" d="M4 0.5C4 0.223858 3.77614 0 3.5 0C3.22386 0 3 0.223858 3 0.5V1H1.5C0.671573 1 0 1.67157 0 2.5V13.5C0 14.3284 0.671573 15 1.5 15H14.5C15.3284 15 16 14.3284 16 13.5V2.5C16 1.67157 15.3284 1 14.5 1H13V0.5C13 0.223858 12.7761 0 12.5 0C12.2239 0 12 0.223858 12 0.5V1H4V0.5ZM15 4V2.5C15 2.22386 14.7761 2 14.5 2H13V2.5C13 2.77614 12.7761 3 12.5 3C12.2239 3 12 2.77614 12 2.5V2H4V2.5C4 2.77614 3.77614 3 3.5 3C3.22386 3 3 2.77614 3 2.5V2H1.5C1.22386 2 1 2.22386 1 2.5V4H15ZM1 5H15V13.5C15 13.7761 14.7761 14 14.5 14H1.5C1.22386 14 1 13.7761 1 13.5V5Z" fill="#EAE9FD"/>
</svg>
