<svg width="24" height="20" viewBox="0 0 24 20" fill="none" xmlns="http://www.w3.org/2000/svg">
<path d="M21.0668 9.46311C22.3046 10.512 23 11.9347 23 13.4181C23 14.4071 22.3046 15.3555 21.0668 16.0548C19.8291 16.7541 18.1503 17.1469 16.3999 17.1469C14.6494 17.1469 12.9707 16.7541 11.7329 16.0548C10.4952 15.3555 9.7998 14.4071 9.7998 13.4181C9.7998 11.9347 10.4952 10.512 11.7329 9.46311C12.9707 8.41417 14.6494 7.82489 16.3999 7.82489C18.1503 7.82489 19.8291 8.41417 21.0668 9.46311Z" fill="#1D1D41"/>
<path fill-rule="evenodd" clip-rule="evenodd" d="M11.0821 8.71242C12.5151 7.49807 14.4298 6.83618 16.3999 6.83618C18.37 6.83618 20.2847 7.49807 21.7176 8.71242C23.1553 9.9308 24 11.619 24 13.4181C24 14.9026 22.965 16.1211 21.563 16.9132C20.1433 17.7153 18.285 18.1356 16.3999 18.1356C14.5148 18.1356 12.6565 17.7153 11.2368 16.9132C9.83479 16.1211 8.79981 14.9026 8.7998 13.4181C8.7998 11.619 9.64442 9.9308 11.0821 8.71242ZM16.3999 8.81356C14.8691 8.81356 13.4263 9.33024 12.3837 10.2138C11.3459 11.0932 10.7998 12.2504 10.7998 13.4181C10.7998 13.9114 11.1555 14.5898 12.2291 15.1963C13.2849 15.7928 14.7841 16.1582 16.3999 16.1582C18.0157 16.1582 19.5149 15.7928 20.5707 15.1963C21.6442 14.5898 22 13.9114 22 13.4181C22 12.2504 21.4539 11.0932 20.4161 10.2138C19.3735 9.33024 17.9307 8.81356 16.3999 8.81356Z" fill="#59598E"/>
<path fill-rule="evenodd" clip-rule="evenodd" d="M16.4001 1.97738C15.043 1.97738 13.9429 3.06505 13.9429 4.40677C13.9429 5.74848 15.043 6.83616 16.4001 6.83616C17.7571 6.83616 18.8572 5.74848 18.8572 4.40677C18.8572 3.06505 17.7571 1.97738 16.4001 1.97738ZM11.9429 4.40677C11.9429 1.97298 13.9384 0 16.4001 0C18.8617 0 20.8572 1.97298 20.8572 4.40677C20.8572 6.84056 18.8617 8.81354 16.4001 8.81354C13.9384 8.81354 11.9429 6.84056 11.9429 4.40677Z" fill="#59598E"/>
<path d="M12.267 11.3275C13.5048 12.3764 14.2002 13.7991 14.2002 15.2825C14.2002 16.2715 13.5048 17.2199 12.267 17.9192C11.0293 18.6185 9.35053 19.0113 7.60008 19.0113C5.84963 19.0113 4.17087 18.6185 2.93312 17.9192C1.69536 17.2199 1 16.2715 1 15.2825C1 13.7991 1.69536 12.3764 2.93312 11.3275C4.17087 10.2786 5.84963 9.6893 7.60008 9.6893C9.35053 9.6893 11.0293 10.2786 12.267 11.3275Z" fill="#1D1D41"/>
<path fill-rule="evenodd" clip-rule="evenodd" d="M2.28233 10.5768C3.71527 9.36248 5.62995 8.70059 7.60008 8.70059C9.57021 8.70059 11.4849 9.36248 12.9178 10.5768C14.3555 11.7952 15.2002 13.4834 15.2002 15.2825C15.2002 16.767 14.1652 17.9855 12.7632 18.7776C11.3435 19.5797 9.48518 20 7.60008 20C5.71498 20 3.85669 19.5797 2.43698 18.7776C1.03499 17.9855 0 16.767 0 15.2825C0 13.4834 0.844618 11.7952 2.28233 10.5768ZM7.60008 10.678C6.06931 10.678 4.62648 11.1946 3.58391 12.0782C2.54611 12.9576 2 14.1148 2 15.2825C2 15.7759 2.35574 16.4543 3.42926 17.0607L2.96968 17.8559L3.42926 17.0608C4.48505 17.6572 5.98428 18.0226 7.60008 18.0226C9.21588 18.0226 10.7151 17.6572 11.7709 17.0607C12.8444 16.4543 13.2002 15.7759 13.2002 15.2825C13.2002 14.1148 12.6541 12.9576 11.6163 12.0782C10.5737 11.1946 9.13085 10.678 7.60008 10.678Z" fill="#59598E"/>
<path fill-rule="evenodd" clip-rule="evenodd" d="M7.59976 3.84179C6.2427 3.84179 5.14258 4.92946 5.14258 6.27118C5.14258 7.61289 6.2427 8.70057 7.59976 8.70057C8.95683 8.70057 10.0569 7.61289 10.0569 6.27118C10.0569 4.92946 8.95683 3.84179 7.59976 3.84179ZM3.14258 6.27118C3.14258 3.83739 5.13813 1.86441 7.59976 1.86441C10.0614 1.86441 12.0569 3.83739 12.0569 6.27118C12.0569 8.70497 10.0614 10.6779 7.59976 10.6779C5.13813 10.6779 3.14258 8.70497 3.14258 6.27118Z" fill="#59598E"/>
</svg>
