<svg width="24" height="24" viewBox="0 0 24 24" fill="none" xmlns="http://www.w3.org/2000/svg">
<path fill-rule="evenodd" clip-rule="evenodd" d="M12 2C6.47715 2 2 6.47715 2 12C2 17.5228 6.47715 22 12 22C17.5228 22 22 17.5228 22 12C22 6.47715 17.5228 2 12 2ZM0 12C0 5.37258 5.37258 0 12 0C18.6274 0 24 5.37258 24 12C24 18.6274 18.6274 24 12 24C5.37258 24 0 18.6274 0 12Z" fill="#59598E"/>
<path fill-rule="evenodd" clip-rule="evenodd" d="M16.8692 7.13072C16.4787 6.7402 15.8455 6.7402 15.455 7.13072L7.13068 15.455C6.74015 15.8456 6.74015 16.4787 7.13068 16.8693C7.5212 17.2598 8.15437 17.2598 8.54489 16.8693L16.8692 8.54494C17.2597 8.15441 17.2597 7.52125 16.8692 7.13072Z" fill="#59598E"/>
<path fill-rule="evenodd" clip-rule="evenodd" d="M16.1621 14.4865C15.5651 14.4865 15.0811 14.9705 15.0811 15.5676C15.0811 16.1647 15.5651 16.6487 16.1621 16.6487C16.7592 16.6487 17.2432 16.1647 17.2432 15.5676C17.2432 14.9705 16.7592 14.4865 16.1621 14.4865ZM13.0811 15.5676C13.0811 13.866 14.4605 12.4865 16.1621 12.4865C17.8638 12.4865 19.2432 13.866 19.2432 15.5676C19.2432 17.2692 17.8638 18.6487 16.1621 18.6487C14.4605 18.6487 13.0811 17.2692 13.0811 15.5676Z" fill="#59598E"/>
<path fill-rule="evenodd" clip-rule="evenodd" d="M7.83792 7.35138C7.24085 7.35138 6.75684 7.8354 6.75684 8.43246C6.75684 9.02953 7.24085 9.51354 7.83792 9.51354C8.43498 9.51354 8.919 9.02953 8.919 8.43246C8.919 7.8354 8.43498 7.35138 7.83792 7.35138ZM4.75684 8.43246C4.75684 6.73083 6.13628 5.35138 7.83792 5.35138C9.53955 5.35138 10.919 6.73083 10.919 8.43246C10.919 10.1341 9.53955 11.5135 7.83792 11.5135C6.13628 11.5135 4.75684 10.1341 4.75684 8.43246Z" fill="#59598E"/>
</svg>
