<svg width="26" height="6" viewBox="0 0 26 6" fill="none" xmlns="http://www.w3.org/2000/svg">
<path d="M16 3C16 4.65663 14.6568 6 13 6C11.3432 6 10 4.65676 10 3C10 1.34324 11.3432 0 13 0C14.6568 0 16 1.34324 16 3Z" fill="white"/>
<path d="M6 3C6 4.65663 4.65676 6 3 6C1.34337 6 0 4.65676 0 3C0 1.34324 1.34324 0 3 0C4.65663 0 6 1.34324 6 3Z" fill="white"/>
<path d="M26 3C26 4.65663 24.6568 6 23 6C21.3434 6 20 4.65676 20 3C20 1.34324 21.3432 0 23 0C24.6566 0 26 1.34324 26 3Z" fill="white"/>
</svg>
