<svg width="24" height="24" viewBox="0 0 24 24" fill="none" xmlns="http://www.w3.org/2000/svg">
<path fill-rule="evenodd" clip-rule="evenodd" d="M12 0C12.5523 0 13 0.447715 13 1V15C13 15.5523 12.5523 16 12 16C11.4477 16 11 15.5523 11 15V1C11 0.447715 11.4477 0 12 0Z" fill="#59598E"/>
<path fill-rule="evenodd" clip-rule="evenodd" d="M1 14C1.55228 14 2 14.4477 2 15V22H22V15C22 14.4477 22.4477 14 23 14C23.5523 14 24 14.4477 24 15V23C24 23.5523 23.5523 24 23 24H1C0.447715 24 0 23.5523 0 23V15C0 14.4477 0.447715 14 1 14Z" fill="#59598E"/>
<path fill-rule="evenodd" clip-rule="evenodd" d="M6.29289 9.29289C6.68342 8.90237 7.31658 8.90237 7.70711 9.29289L12 13.5858L16.2929 9.29289C16.6834 8.90237 17.3166 8.90237 17.7071 9.29289C18.0976 9.68342 18.0976 10.3166 17.7071 10.7071L12.7071 15.7071C12.3166 16.0976 11.6834 16.0976 11.2929 15.7071L6.29289 10.7071C5.90237 10.3166 5.90237 9.68342 6.29289 9.29289Z" fill="#59598E"/>
</svg>
