<svg width="12" height="10" viewBox="0 0 12 10" fill="none" xmlns="http://www.w3.org/2000/svg">
<path fill-rule="evenodd" clip-rule="evenodd" d="M0.628357 0.165522C0.813087 -0.0397331 1.12923 -0.0563723 1.33449 0.128357L6.33449 4.62836C6.43984 4.72318 6.5 4.85826 6.5 5C6.5 5.14175 6.43984 5.27683 6.33449 5.37165L1.33449 9.87165C1.12923 10.0564 0.813087 10.0397 0.628357 9.83449C0.443628 9.62923 0.460267 9.31309 0.665522 9.12836L5.25258 5L0.665522 0.871651C0.460267 0.686922 0.443628 0.370777 0.628357 0.165522Z" fill="#8C89B4"/>
<path fill-rule="evenodd" clip-rule="evenodd" d="M5.62836 0.165522C5.81309 -0.0397331 6.12923 -0.0563723 6.33449 0.128357L11.3345 4.62836C11.4398 4.72318 11.5 4.85826 11.5 5C11.5 5.14175 11.4398 5.27683 11.3345 5.37165L6.33449 9.87165C6.12923 10.0564 5.81309 10.0397 5.62836 9.83449C5.44363 9.62923 5.46027 9.31309 5.66552 9.12836L10.2526 5L5.66552 0.871651C5.46027 0.686922 5.44363 0.370777 5.62836 0.165522Z" fill="#8C89B4"/>
</svg>
