<svg width="16" height="16" viewBox="0 0 16 16" fill="none" xmlns="http://www.w3.org/2000/svg">
<g clip-path="url(#clip0_123_2900)">
<path fill-rule="evenodd" clip-rule="evenodd" d="M3.5 3C3.77614 3 4 3.13991 4 3.3125L4 12.6875C4 12.8601 3.77614 13 3.5 13C3.22386 13 3 12.8601 3 12.6875L3 3.3125C3 3.13991 3.22386 3 3.5 3Z" fill="#EAE9FD"/>
<path fill-rule="evenodd" clip-rule="evenodd" d="M11.5 3C11.7761 3 12 3.13991 12 3.3125L12 12.6875C12 12.8601 11.7761 13 11.5 13C11.2239 13 11 12.8601 11 12.6875L11 3.3125C11 3.13991 11.2239 3 11.5 3Z" fill="#EAE9FD"/>
<path fill-rule="evenodd" clip-rule="evenodd" d="M7.5 -2.18556e-08C7.77614 -9.78509e-09 8 0.223858 8 0.5L8 15.5C8 15.7761 7.77614 16 7.5 16C7.22386 16 7 15.7761 7 15.5L7 0.5C7 0.223858 7.22386 -3.39261e-08 7.5 -2.18556e-08Z" fill="#EAE9FD"/>
</g>
<defs>
<clipPath id="clip0_123_2900">
<rect width="16" height="16" fill="white"/>
</clipPath>
</defs>
</svg>
