<svg width="24" height="20" viewBox="0 0 24 20" fill="none" xmlns="http://www.w3.org/2000/svg">
<path fill-rule="evenodd" clip-rule="evenodd" d="M12.7528 0.0926593C13.2571 -0.0490885 13.7928 -0.0277678 14.2844 0.153616L22.3596 3.13315C23.3449 3.49668 24 4.4414 23.9999 5.49855L23.9992 14.4105C23.9991 15.5408 23.2516 16.5326 22.1711 16.8364L11.2472 19.9073C10.7429 20.0491 10.2072 20.0278 9.71558 19.8464L1.64029 16.8668C0.655099 16.5033 -6.55651e-07 15.5587 0 14.5016L5.42402e-06 5.58974C6.13928e-06 4.45933 0.747468 3.46738 1.82816 3.16359L12.7528 0.0926593ZM13.5966 2.04576C13.4983 2.00949 13.3912 2.00522 13.2903 2.03357L2.36564 5.10451C2.1495 5.16527 2.00001 5.36366 2.00001 5.58974L2 14.5016C2 14.7131 2.13102 14.902 2.32806 14.9747L10.4033 17.9542C10.5017 17.9905 10.6088 17.9948 10.7097 17.9664L21.6335 14.8955C21.8497 14.8347 21.9991 14.6364 21.9992 14.4103L21.9999 5.49838C21.9999 5.28695 21.8689 5.098 21.6719 5.0253L13.5966 2.04576Z" fill="#59598E"/>
<path fill-rule="evenodd" clip-rule="evenodd" d="M0 6.6053C0 4.85491 1.72833 3.63818 3.35971 4.24011L9.54476 6.52222C10.727 6.95843 11.5131 8.09196 11.5131 9.36045V16.9048C11.5131 18.6552 9.78477 19.8719 8.1534 19.27L1.96835 16.9879C0.786119 16.5517 0 15.4181 0 14.1497V6.6053ZM2.67194 6.13226C2.34567 6.01187 2 6.25522 2 6.6053V14.1497C2 14.5725 2.26204 14.9503 2.65612 15.0957L8.84117 17.3778C9.16744 17.4982 9.51311 17.2549 9.51311 16.9048V9.36045C9.51311 8.93762 9.25107 8.55977 8.85699 8.41437L2.67194 6.13226Z" fill="#59598E"/>
<path fill-rule="evenodd" clip-rule="evenodd" d="M3.25788 12.778C3.42966 12.2492 3.99443 11.9608 4.51932 12.1338L7.26932 13.0406C7.79421 13.2137 8.08046 13.7827 7.90868 14.3115C7.73689 14.8404 7.17213 15.1288 6.64724 14.9557L3.89724 14.0489C3.37235 13.8759 3.0861 13.3068 3.25788 12.778Z" fill="#59598E"/>
<path fill-rule="evenodd" clip-rule="evenodd" d="M23.999 6.43309C23.999 4.76614 22.4208 3.55896 20.8271 4.00696L11.7068 6.57088C10.41 6.93544 9.51307 8.12578 9.51307 9.48224V17.077C9.51307 18.744 11.0913 19.9511 12.685 19.5031L21.8053 16.9392C23.1021 16.5747 23.999 15.3843 23.999 14.0279V6.43309ZM21.3646 5.94786C21.6834 5.85826 21.999 6.0997 21.999 6.43309V14.0279C21.999 14.48 21.7 14.8768 21.2678 14.9983L12.1474 17.5622C11.8287 17.6518 11.5131 17.4104 11.5131 17.077V9.48224C11.5131 9.03009 11.812 8.63331 12.2443 8.51179L21.3646 5.94786Z" fill="#59598E"/>
<path fill-rule="evenodd" clip-rule="evenodd" d="M13.7476 2.10136C13.551 2.02881 13.3367 2.02028 13.135 2.07698L4.25935 4.57193L5.7978 5.13957L14.9837 2.55742L13.7476 2.10136ZM18.2018 3.74481L9.0159 6.32696L10.2519 6.78303C10.4486 6.85558 10.6629 6.86411 10.8646 6.80741L19.7402 4.31246L18.2018 3.74481ZM12.5975 0.136063C13.2026 -0.0340345 13.8455 -0.0084494 14.4354 0.209211L20.428 2.42031C22.2522 3.09341 22.149 5.72736 20.2777 6.25337L11.402 8.74832C10.7969 8.91842 10.1541 8.89283 9.56416 8.67517L3.57158 6.46407C1.74732 5.79097 1.85061 3.15702 3.72187 2.63101L12.5975 0.136063Z" fill="#59598E"/>
</svg>
