<svg width="38" height="32" viewBox="0 0 38 32" fill="none" xmlns="http://www.w3.org/2000/svg">
<path d="M18.885 0.064516L14.6415 7.20381C14.6177 7.24372 14.6177 7.29288 14.6414 7.3328L16.7881 10.947C16.8392 11.0331 16.9671 11.0331 17.0182 10.9471L18.885 7.80645C18.9361 7.72043 19.0639 7.72043 19.115 7.80645L31.0795 27.9355C31.1306 28.0215 31.0667 28.129 30.9644 28.129H22.4439L12.4385 11.2904C12.3874 11.2044 12.2595 11.2044 12.2084 11.2904L0.017992 31.8064C-0.0331212 31.8925 0.0307505 32 0.133002 32H15.3774C15.4796 32 15.5436 31.8925 15.4925 31.8065L13.3466 28.1936C13.3229 28.1536 13.279 28.129 13.2315 28.129H7.03558C6.93332 28.129 6.86941 28.0215 6.92054 27.9355L12.2237 19.0134C12.2816 18.9489 12.3919 18.9558 12.4385 19.0342L17.84 28.1248C17.8411 28.1267 17.8397 28.129 17.8375 28.129C17.8353 28.129 17.8339 28.1314 17.835 28.1333L20.1261 31.9907C20.1295 31.9965 20.1358 32 20.1426 32H37.867C37.9692 32 38.0331 31.8925 37.982 31.8064L19.115 0.0645163C19.0639 -0.0215052 18.9361 -0.0215055 18.885 0.064516Z" fill="#6359E9"/>
</svg>
