<svg width="24" height="20" viewBox="0 0 24 20" fill="none" xmlns="http://www.w3.org/2000/svg">
<path fill-rule="evenodd" clip-rule="evenodd" d="M21.4299 0L2.57048 3.68357e-05C1.15288 3.68357e-05 0 1.17097 0 2.61153V19.0332C0 19.3749 0.177842 19.6946 0.472616 19.8684C0.763875 20.041 1.12448 20.0445 1.42007 19.8748L6.17475 17.1445H21.4295C22.8471 17.1445 24 15.9735 24 14.533V2.61186C24.0004 1.17091 22.8476 0 21.4299 0ZM22.0959 2.7095L22.0961 14.5661C22.0793 14.9242 21.7865 15.2112 21.43 15.2112H5.92491C5.75935 15.2112 5.59841 15.2551 5.45655 15.3366L1.9036 17.3766V2.7095C1.9036 2.33642 2.20333 2.03191 2.57055 2.03191H21.429C21.7962 2.03191 22.0959 2.33642 22.0959 2.7095Z" fill="#59598E"/>
<path d="M10.7668 7.4347L8.75868 6.97023L7.69519 5.2039C7.53203 4.93203 7.08492 4.93203 6.92094 5.2039L5.85849 6.97023L3.84997 7.4347C3.69548 7.4704 3.57125 7.58475 3.52203 7.73561C3.47323 7.88606 3.5067 8.05144 3.61057 8.17104L4.96225 9.7278L4.78336 11.7815C4.76985 11.9396 4.83943 12.0927 4.9677 12.1863C5.09335 12.278 5.25994 12.2996 5.40999 12.2369L7.30782 11.4324L9.20565 12.2369C9.35247 12.2988 9.51966 12.2803 9.64793 12.1863C9.7762 12.0933 9.84578 11.9396 9.83227 11.7815L9.65378 9.7278L11.0051 8.17104C11.1089 8.05124 11.1428 7.88606 11.0936 7.73561C11.0456 7.58475 10.9214 7.4704 10.7669 7.4347H10.7668ZM8.84681 9.28028C8.76634 9.37245 8.72701 9.49346 8.7379 9.61547L8.86798 11.1121L7.48465 10.5253C7.42818 10.5013 7.36808 10.4896 7.30798 10.4896C7.24787 10.4896 7.18778 10.5013 7.1313 10.5253L5.74838 11.1117L5.87847 9.61506C5.88895 9.49264 5.85003 9.37204 5.76956 9.27987L4.78476 8.14539L6.24796 7.80697C6.36716 7.77894 6.46981 7.70451 6.53354 7.59964L7.30738 6.31208L8.08225 7.59964C8.14558 7.70451 8.24803 7.77894 8.36722 7.80697L9.83043 8.14539L8.84681 9.28028Z" fill="#59598E" stroke="#59598E" stroke-width="0.5"/>
<path fill-rule="evenodd" clip-rule="evenodd" d="M12.4229 7.25C12.4229 6.83538 12.7367 6.5 13.1246 6.5H19.644C20.0316 6.5 20.3461 6.83531 20.3458 7.25022C20.3456 7.66473 20.0319 8 19.644 8H13.1246C12.7367 8 12.4229 7.66462 12.4229 7.25Z" fill="#59598E"/>
<path fill-rule="evenodd" clip-rule="evenodd" d="M12.4229 10.25C12.4229 9.83538 12.7367 9.5 13.1246 9.5H19.644C20.0316 9.5 20.3461 9.83531 20.3458 10.2502C20.3456 10.6647 20.0319 11 19.644 11H13.1246C12.7367 11 12.4229 10.6646 12.4229 10.25Z" fill="#59598E"/>
</svg>
