<svg width="24" height="24" viewBox="0 0 24 24" fill="none" xmlns="http://www.w3.org/2000/svg">
<path fill-rule="evenodd" clip-rule="evenodd" d="M23.7724 4.35308C23.5868 4.12471 23.312 3.99499 23.0247 3.9998H6.50443L6.09206 2.26991C5.93596 1.62132 5.57614 1.04575 5.07036 0.634497C4.56488 0.223243 3.94172 0 3.30011 0H0.959252C0.616327 0 0.299829 0.190573 0.128366 0.499975C-0.0427888 0.809376 -0.0427888 1.19052 0.128366 1.49992C0.299829 1.80933 0.616327 1.9999 0.959252 1.9999H3.30011C3.5146 1.9999 3.72232 2.07485 3.89101 2.21289C4.05971 2.35062 4.17924 2.54311 4.23056 2.75963L4.79657 5.20986L6.33635 13.9026L6.3425 13.9381L6.73366 16.1798C6.77453 16.4127 6.89345 16.6231 7.06891 16.7733C7.24467 16.9236 7.46591 17.0036 7.69299 16.9998H21.1061C21.3332 17.0036 21.5544 16.9236 21.7302 16.7733C21.9056 16.6231 22.0245 16.4127 22.0654 16.1798L23.9844 5.17975C24.036 4.88508 23.9583 4.58177 23.7724 4.35308ZM11.2072 13.1124C11.0195 13.2997 10.7652 13.405 10.5 13.405C10.2348 13.405 9.98014 13.2997 9.79276 13.1124C9.60538 12.9249 9.5 12.6708 9.5 12.4058V8.40858C9.5 8.0514 9.69058 7.72174 10 7.54315C10.3094 7.36456 10.6906 7.36456 11 7.54315C11.3094 7.72174 11.5 8.0514 11.5 8.40858V12.4058C11.5 12.6708 11.3946 12.9252 11.2072 13.1124ZM14.5 13.405C14.7652 13.405 15.0199 13.2997 15.2072 13.1124C15.3946 12.9252 15.5 12.6708 15.5 12.4058V8.40858C15.5 8.0514 15.3094 7.72174 15 7.54315C14.6906 7.36456 14.3094 7.36456 14 7.54315C13.6906 7.72174 13.5 8.0514 13.5 8.40858V12.4058C13.5 12.6708 13.6054 12.9249 13.7928 13.1124C13.9805 13.2997 14.2348 13.405 14.5 13.405ZM19.2072 13.1124C19.0195 13.2997 18.7652 13.405 18.5 13.405C18.2348 13.405 17.9801 13.2997 17.7928 13.1124C17.6054 12.9249 17.5 12.6708 17.5 12.4058V8.40858C17.5 8.0514 17.6906 7.72174 18 7.54315C18.3094 7.36456 18.6906 7.36456 19 7.54315C19.3094 7.72174 19.5 8.0514 19.5 8.40858V12.4058C19.5 12.6708 19.3946 12.9252 19.2072 13.1124Z" fill="white"/>
<path d="M20.9162 18.5881C20.1828 18.0222 19.2351 17.8528 18.3624 18.1314C17.4898 18.4097 16.7956 19.1028 16.4911 19.9997H12.2989C12.2983 19.9977 12.2973 19.9958 12.2967 19.9939C11.9006 18.8364 10.8396 18.0081 9.59296 18.0081C8.0077 18.0081 6.72266 19.3476 6.72266 20.9999C6.72266 22.6523 8.0077 23.9918 9.59296 23.9918C10.8402 23.9918 11.9016 23.1625 12.2973 22.0044C12.2979 22.0031 12.2986 22.0015 12.2989 21.9999H16.4914C16.7956 22.8967 17.4898 23.5901 18.3624 23.8685C19.2351 24.1471 20.1828 23.9777 20.9162 23.4117C21.65 22.8461 22.083 21.9512 22.083 20.9999C22.083 20.0487 21.65 19.1535 20.9162 18.5881ZM10.2714 21.7068C10.0917 21.8945 9.84739 21.9999 9.59296 21.9999C9.33853 21.9999 9.09455 21.8945 8.91479 21.7068C8.73473 21.5194 8.63363 21.2648 8.63363 20.9996C8.63363 20.7344 8.73473 20.4801 8.91479 20.2927C9.09455 20.105 9.33853 19.9997 9.59296 19.9997C9.84739 19.9997 10.0917 20.105 10.2714 20.2927C10.4515 20.4801 10.5526 20.7347 10.5526 20.9996C10.5526 21.2645 10.4515 21.5194 10.2714 21.7068ZM19.8653 21.7068C19.6853 21.8945 19.4413 21.9999 19.1869 21.9999C18.9324 21.9999 18.6882 21.8945 18.5084 21.7068C18.3286 21.5194 18.2275 21.2648 18.2275 20.9996C18.2275 20.7344 18.3286 20.4801 18.5084 20.2927C18.6882 20.105 18.9324 19.9997 19.1869 19.9997C19.4413 19.9997 19.6853 20.105 19.8653 20.2927C20.0451 20.4801 20.1462 20.7347 20.1462 20.9996C20.1462 21.2645 20.0451 21.5194 19.8653 21.7068Z" fill="white"/>
</svg>
