<svg width="24" height="24" viewBox="0 0 24 24" fill="none" xmlns="http://www.w3.org/2000/svg">
<path d="M23.7724 4.3531C23.5868 4.12473 23.312 3.99501 23.0247 3.99982H6.50443L6.09206 2.26992C5.93596 1.62132 5.57614 1.04576 5.07035 0.6345C4.56488 0.223244 3.94171 0 3.30011 0H0.959252C0.616327 0 0.299829 0.190574 0.128366 0.499977C-0.0427888 0.80938 -0.0427888 1.19053 0.128366 1.49993C0.299829 1.80933 0.616327 1.99991 0.959252 1.99991H3.30011C3.51459 1.99991 3.72232 2.07486 3.89101 2.2129C4.05971 2.35063 4.17924 2.54313 4.23056 2.75964L4.79657 5.20988L6.33635 13.9026L6.3425 13.9382L6.73366 16.1799C6.77453 16.4128 6.89345 16.6232 7.06891 16.7734C7.24467 16.9236 7.46591 17.0037 7.69299 16.9999H21.1061C21.3332 17.0037 21.5544 16.9236 21.7302 16.7734C21.9056 16.6232 22.0245 16.4128 22.0654 16.1799L23.9844 5.17978C24.036 4.88511 23.9583 4.58179 23.7724 4.3531ZM20.3001 15H8.47072L6.90697 5.99973H21.8734L20.3001 15Z" fill="#59598E"/>
<path d="M20.9165 18.5881C20.183 18.0222 19.2354 17.8528 18.3627 18.1314C17.49 18.4097 16.7959 19.1028 16.4913 19.9997H12.2991C12.2985 19.9977 12.2976 19.9958 12.297 19.9939C11.9009 18.8364 10.8398 18.0081 9.59321 18.0081C8.00795 18.0081 6.7229 19.3476 6.7229 20.9999C6.7229 22.6523 8.00795 23.9918 9.59321 23.9918C10.8405 23.9918 11.9018 23.1625 12.2976 22.0044C12.2982 22.0031 12.2988 22.0015 12.2991 21.9999H16.4916C16.7959 22.8967 17.49 23.5901 18.3627 23.8685C19.2354 24.1471 20.183 23.9777 20.9165 23.4117C21.6503 22.8461 22.0832 21.9512 22.0832 20.9999C22.0832 20.0487 21.6503 19.1535 20.9165 18.5881ZM10.2717 21.7068C10.0919 21.8945 9.84763 21.9999 9.59321 21.9999C9.33878 21.9999 9.0948 21.8945 8.91504 21.7068C8.73497 21.5194 8.63388 21.2648 8.63388 20.9996C8.63388 20.7344 8.73497 20.4801 8.91504 20.2927C9.0948 20.105 9.33878 19.9997 9.59321 19.9997C9.84763 19.9997 10.0919 20.105 10.2717 20.2927C10.4517 20.4801 10.5528 20.7347 10.5528 20.9996C10.5528 21.2645 10.4517 21.5194 10.2717 21.7068ZM19.8656 21.7068C19.6855 21.8945 19.4415 21.9999 19.1871 21.9999C18.9327 21.9999 18.6884 21.8945 18.5086 21.7068C18.3289 21.5194 18.2278 21.2648 18.2278 20.9996C18.2278 20.7344 18.3289 20.4801 18.5086 20.2927C18.6884 20.105 18.9327 19.9997 19.1871 19.9997C19.4415 19.9997 19.6855 20.105 19.8656 20.2927C20.0453 20.4801 20.1464 20.7347 20.1464 20.9996C20.1464 21.2645 20.0453 21.5194 19.8656 21.7068Z" fill="#59598E"/>
<path d="M10.5 13.405C10.7652 13.405 11.0195 13.2997 11.2072 13.1124C11.3946 12.9252 11.5 12.6708 11.5 12.4058V8.40858C11.5 8.0514 11.3094 7.72174 11 7.54315C10.6906 7.36456 10.3094 7.36456 10 7.54315C9.69058 7.72174 9.5 8.0514 9.5 8.40858V12.4058C9.5 12.6708 9.60538 12.9249 9.79276 13.1124C9.98014 13.2997 10.2348 13.405 10.5 13.405Z" fill="#59598E"/>
<path d="M14.5 13.405C14.7652 13.405 15.0199 13.2997 15.2072 13.1124C15.3946 12.9252 15.5 12.6708 15.5 12.4058V8.40858C15.5 8.0514 15.3094 7.72174 15 7.54315C14.6906 7.36456 14.3094 7.36456 14 7.54315C13.6906 7.72174 13.5 8.0514 13.5 8.40858V12.4058C13.5 12.6708 13.6054 12.9249 13.7928 13.1124C13.9805 13.2997 14.2348 13.405 14.5 13.405Z" fill="#59598E"/>
<path d="M18.5 13.405C18.7652 13.405 19.0195 13.2997 19.2072 13.1124C19.3946 12.9252 19.5 12.6708 19.5 12.4058V8.40858C19.5 8.0514 19.3094 7.72174 19 7.54315C18.6906 7.36456 18.3094 7.36456 18 7.54315C17.6906 7.72174 17.5 8.0514 17.5 8.40858V12.4058C17.5 12.6708 17.6054 12.9249 17.7928 13.1124C17.9801 13.2997 18.2348 13.405 18.5 13.405Z" fill="#59598E"/>
</svg>
