<svg width="16" height="16" viewBox="0 0 16 16" fill="none" xmlns="http://www.w3.org/2000/svg">
<path fill-rule="evenodd" clip-rule="evenodd" d="M6.5 0C2.91015 0 0 2.91015 0 6.5C0 10.0899 2.91015 13 6.5 13C8.11495 13 9.59235 12.411 10.7291 11.4362L15.1465 15.8536C15.3417 16.0488 15.6583 16.0488 15.8536 15.8536C16.0489 15.6583 16.0489 15.3417 15.8536 15.1465L11.4362 10.7291C12.4111 9.59232 13 8.11494 13 6.5C13 2.91015 10.0899 0 6.5 0ZM1 6.5C1 3.46243 3.46243 1 6.5 1C9.53757 1 12 3.46243 12 6.5C12 9.53757 9.53757 12 6.5 12C3.46243 12 1 9.53757 1 6.5Z" fill="#AEABD8"/>
</svg>
