<svg width="24" height="20" viewBox="0 0 24 20" fill="none" xmlns="http://www.w3.org/2000/svg">
<path fill-rule="evenodd" clip-rule="evenodd" d="M0 16C0 15.4477 0.447715 15 1 15H23C23.5523 15 24 15.4477 24 16C24 16.5523 23.5523 17 23 17H1C0.447715 17 0 16.5523 0 16Z" fill="#59598E"/>
<path d="M20 16C20 17.6569 18.6569 19 17 19C15.3431 19 14 17.6569 14 16C14 14.3431 15.3431 13 17 13C18.6569 13 20 14.3431 20 16Z" fill="#1D1D41"/>
<path fill-rule="evenodd" clip-rule="evenodd" d="M17 14C15.8954 14 15 14.8954 15 16C15 17.1046 15.8954 18 17 18C18.1046 18 19 17.1046 19 16C19 14.8954 18.1046 14 17 14ZM13 16C13 13.7909 14.7909 12 17 12C19.2091 12 21 13.7909 21 16C21 18.2091 19.2091 20 17 20C14.7909 20 13 18.2091 13 16Z" fill="#59598E"/>
<path fill-rule="evenodd" clip-rule="evenodd" d="M24 4C24 3.44772 23.5523 3 23 3H1C0.447716 3 0 3.44772 0 4C0 4.55228 0.447716 5 1 5H23C23.5523 5 24 4.55228 24 4Z" fill="#59598E"/>
<path d="M4 4C4 5.65685 5.34315 7 7 7C8.65685 7 10 5.65685 10 4C10 2.34315 8.65685 1 7 1C5.34315 1 4 2.34315 4 4Z" fill="#1D1D41"/>
<path fill-rule="evenodd" clip-rule="evenodd" d="M7 2C8.10457 2 9 2.89543 9 4C9 5.10457 8.10457 6 7 6C5.89543 6 5 5.10457 5 4C5 2.89543 5.89543 2 7 2ZM11 4C11 1.79086 9.20914 0 7 0C4.79086 0 3 1.79086 3 4C3 6.20914 4.79086 8 7 8C9.20914 8 11 6.20914 11 4Z" fill="#59598E"/>
</svg>
