<svg width="26" height="20" viewBox="0 0 26 20" fill="none" xmlns="http://www.w3.org/2000/svg">
<path fill-rule="evenodd" clip-rule="evenodd" d="M11.5537 3.14137C11.7176 1.65595 12.9902 0.5 14.5358 0.5H22.9999C24.6568 0.5 25.9999 1.8283 25.9999 3.46685V14.1853C25.9999 15.8238 24.6568 17.1521 22.9999 17.1521H3C1.34315 17.1521 0 15.8238 0 14.1853V9.61082C0 9.12691 0.11969 8.65034 0.348636 8.22267L2.22368 4.72007C2.7434 3.74922 3.76257 3.14137 4.87425 3.14137H11.5537ZM11.5358 5.11927H9.05159V8.316C9.05159 9.95481 7.70818 11.2824 6.05159 11.2824H2V14.1853C2 14.7315 2.44771 15.1742 3 15.1742H22.9999C23.5522 15.1742 23.9999 14.7315 23.9999 14.1853V11.2824H14.5358C12.879 11.2824 11.5358 9.95414 11.5358 8.3156V5.11927ZM23.9999 9.30455V3.46685C23.9999 2.92067 23.5522 2.4779 22.9999 2.4779H14.5358C13.9836 2.4779 13.5358 2.92067 13.5358 3.46685V8.3156C13.5358 8.86178 13.9836 9.30455 14.5358 9.30455H23.9999ZM2.04916 9.30455H6.05159C6.60414 9.30455 7.05159 8.86192 7.05159 8.316V5.11927H4.87425C4.50428 5.11927 4.16477 5.32136 3.99125 5.6455L2.11621 9.1481C2.08927 9.19842 2.06687 9.25077 2.04916 9.30455Z" fill="#59598E"/>
<path fill-rule="evenodd" clip-rule="evenodd" d="M16 16.5C16 14.8431 17.3431 13.5 19 13.5C20.6569 13.5 22 14.8431 22 16.5C22 18.1569 20.6569 19.5 19 19.5C17.3431 19.5 16 18.1569 16 16.5Z" fill="#59598E"/>
<path d="M20 16.4989C20 17.0505 19.5523 17.4977 19 17.4977C18.4477 17.4977 18 17.0505 18 16.4989C18 15.9472 18.4477 15.5 19 15.5C19.5523 15.5 20 15.9472 20 16.4989Z" fill="#1D1D41"/>
<path fill-rule="evenodd" clip-rule="evenodd" d="M4 16.5C4 14.8431 5.34315 13.5 7 13.5C8.65685 13.5 10 14.8431 10 16.5C10 18.1569 8.65685 19.5 7 19.5C5.34315 19.5 4 18.1569 4 16.5Z" fill="#59598E"/>
<path d="M8 16.4989C8 17.0505 7.55228 17.4977 7 17.4977C6.44772 17.4977 6 17.0505 6 16.4989C6 15.9472 6.44772 15.5 7 15.5C7.55228 15.5 8 15.9472 8 16.4989Z" fill="#1D1D41"/>
</svg>
