<svg width="16" height="16" viewBox="0 0 16 16" fill="none" xmlns="http://www.w3.org/2000/svg">
<path fill-rule="evenodd" clip-rule="evenodd" d="M2.88477 8C2.88477 7.72386 3.10862 7.5 3.38477 7.5H12.6155C12.8917 7.5 13.1155 7.72386 13.1155 8C13.1155 8.27614 12.8917 8.5 12.6155 8.5H3.38477C3.10862 8.5 2.88477 8.27614 2.88477 8Z" fill="#EAE9FD"/>
<path fill-rule="evenodd" clip-rule="evenodd" d="M0 4.5C0 4.22386 0.223858 4 0.5 4H15.5C15.7761 4 16 4.22386 16 4.5C16 4.77614 15.7761 5 15.5 5H0.5C0.223858 5 0 4.77614 0 4.5Z" fill="#EAE9FD"/>
<path fill-rule="evenodd" clip-rule="evenodd" d="M5.76855 11.5C5.76855 11.2239 5.99241 11 6.26855 11H9.73009C10.0062 11 10.2301 11.2239 10.2301 11.5C10.2301 11.7761 10.0062 12 9.73009 12H6.26855C5.99241 12 5.76855 11.7761 5.76855 11.5Z" fill="#EAE9FD"/>
</svg>
